<mxfile host="65bd71144e">
    <diagram id="7y2SN3gLFynbPMxFpTg0" name="Page-1">
        <mxGraphModel dx="1574" dy="1966" grid="1" gridSize="10" guides="1" tooltips="1" connect="1" arrows="1" fold="1" page="1" pageScale="1" pageWidth="827" pageHeight="1169" math="0" shadow="0">
            <root>
                <mxCell id="0"/>
                <mxCell id="1" parent="0"/>
                <mxCell id="2" value="teacher_id" style="ellipse;whiteSpace=wrap;html=1;labelBackgroundColor=#FF3333;" vertex="1" parent="1">
                    <mxGeometry x="40" y="70" width="120" height="80" as="geometry"/>
                </mxCell>
                <mxCell id="3" value="Teacher" style="whiteSpace=wrap;html=1;aspect=fixed;labelBackgroundColor=#808080;" vertex="1" parent="1">
                    <mxGeometry x="190" y="210" width="80" height="80" as="geometry"/>
                </mxCell>
                <mxCell id="9" style="edgeStyle=none;html=1;exitX=1;exitY=0.5;exitDx=0;exitDy=0;entryX=0;entryY=0.5;entryDx=0;entryDy=0;" edge="1" parent="1" source="4" target="3">
                    <mxGeometry relative="1" as="geometry"/>
                </mxCell>
                <mxCell id="4" value="first_name" style="ellipse;whiteSpace=wrap;html=1;labelBackgroundColor=#808080;" vertex="1" parent="1">
                    <mxGeometry x="30" y="190" width="120" height="80" as="geometry"/>
                </mxCell>
                <mxCell id="7" style="edgeStyle=none;html=1;exitX=1;exitY=0.5;exitDx=0;exitDy=0;" edge="1" parent="1" source="5">
                    <mxGeometry relative="1" as="geometry">
                        <mxPoint x="210" y="280" as="targetPoint"/>
                    </mxGeometry>
                </mxCell>
                <mxCell id="5" value="last_name" style="ellipse;whiteSpace=wrap;html=1;labelBackgroundColor=#808080;" vertex="1" parent="1">
                    <mxGeometry x="30" y="320" width="120" height="80" as="geometry"/>
                </mxCell>
                <mxCell id="10" value="dob" style="ellipse;whiteSpace=wrap;html=1;labelBackgroundColor=#808080;" vertex="1" parent="1">
                    <mxGeometry x="170" y="380" width="120" height="80" as="geometry"/>
                </mxCell>
                <mxCell id="11" value="" style="endArrow=none;html=1;exitX=0.5;exitY=0;exitDx=0;exitDy=0;" edge="1" parent="1" source="10" target="3">
                    <mxGeometry width="50" height="50" relative="1" as="geometry">
                        <mxPoint x="210" y="370" as="sourcePoint"/>
                        <mxPoint x="260" y="320" as="targetPoint"/>
                    </mxGeometry>
                </mxCell>
                <mxCell id="12" value="phone_no" style="ellipse;whiteSpace=wrap;html=1;labelBackgroundColor=#808080;" vertex="1" parent="1">
                    <mxGeometry x="290" y="110" width="100" height="80" as="geometry"/>
                </mxCell>
                <mxCell id="13" value="" style="endArrow=none;html=1;exitX=1;exitY=0.25;exitDx=0;exitDy=0;" edge="1" parent="1" source="3" target="12">
                    <mxGeometry width="50" height="50" relative="1" as="geometry">
                        <mxPoint x="210" y="370" as="sourcePoint"/>
                        <mxPoint x="260" y="320" as="targetPoint"/>
                    </mxGeometry>
                </mxCell>
                <mxCell id="14" value="" style="endArrow=none;html=1;" edge="1" parent="1" source="3" target="2">
                    <mxGeometry width="50" height="50" relative="1" as="geometry">
                        <mxPoint x="210" y="370" as="sourcePoint"/>
                        <mxPoint x="260" y="320" as="targetPoint"/>
                    </mxGeometry>
                </mxCell>
                <mxCell id="15" value="language_1" style="ellipse;whiteSpace=wrap;html=1;labelBackgroundColor=#808080;" vertex="1" parent="1">
                    <mxGeometry x="340" y="220" width="120" height="80" as="geometry"/>
                </mxCell>
                <mxCell id="16" value="" style="endArrow=none;html=1;exitX=1;exitY=0.5;exitDx=0;exitDy=0;" edge="1" parent="1" source="3" target="15">
                    <mxGeometry width="50" height="50" relative="1" as="geometry">
                        <mxPoint x="210" y="370" as="sourcePoint"/>
                        <mxPoint x="260" y="320" as="targetPoint"/>
                    </mxGeometry>
                </mxCell>
                <mxCell id="18" value="language_2" style="ellipse;whiteSpace=wrap;html=1;labelBackgroundColor=#808080;" vertex="1" parent="1">
                    <mxGeometry x="280" y="320" width="120" height="80" as="geometry"/>
                </mxCell>
                <mxCell id="19" value="" style="endArrow=none;html=1;entryX=1;entryY=0.75;entryDx=0;entryDy=0;" edge="1" parent="1" source="18" target="3">
                    <mxGeometry width="50" height="50" relative="1" as="geometry">
                        <mxPoint x="400" y="370" as="sourcePoint"/>
                        <mxPoint x="450" y="320" as="targetPoint"/>
                    </mxGeometry>
                </mxCell>
                <mxCell id="20" value="teaches" style="rhombus;whiteSpace=wrap;html=1;labelBackgroundColor=#0000CC;" vertex="1" parent="1">
                    <mxGeometry x="414" y="505" width="80" height="80" as="geometry"/>
                </mxCell>
                <mxCell id="21" value="" style="endArrow=none;html=1;exitX=0;exitY=1;exitDx=0;exitDy=0;" edge="1" parent="1" source="20" target="3">
                    <mxGeometry width="50" height="50" relative="1" as="geometry">
                        <mxPoint x="310" y="370" as="sourcePoint"/>
                        <mxPoint x="360" y="320" as="targetPoint"/>
                    </mxGeometry>
                </mxCell>
                <mxCell id="22" value="course" style="whiteSpace=wrap;html=1;aspect=fixed;labelBackgroundColor=#808080;" vertex="1" parent="1">
                    <mxGeometry x="690" y="270" width="80" height="80" as="geometry"/>
                </mxCell>
                <mxCell id="23" value="" style="endArrow=none;html=1;exitX=0.25;exitY=1;exitDx=0;exitDy=0;entryX=0.896;entryY=0.311;entryDx=0;entryDy=0;entryPerimeter=0;" edge="1" parent="1" source="22" target="20">
                    <mxGeometry width="50" height="50" relative="1" as="geometry">
                        <mxPoint x="600" y="370" as="sourcePoint"/>
                        <mxPoint x="650" y="320" as="targetPoint"/>
                    </mxGeometry>
                </mxCell>
                <mxCell id="24" value="course_length_weeks" style="ellipse;whiteSpace=wrap;html=1;labelBackgroundColor=#808080;" vertex="1" parent="1">
                    <mxGeometry x="560" y="180" width="120" height="80" as="geometry"/>
                </mxCell>
                <mxCell id="25" value="" style="endArrow=none;html=1;" edge="1" parent="1" source="22" target="24">
                    <mxGeometry width="50" height="50" relative="1" as="geometry">
                        <mxPoint x="600" y="370" as="sourcePoint"/>
                        <mxPoint x="650" y="320" as="targetPoint"/>
                    </mxGeometry>
                </mxCell>
                <mxCell id="26" value="course_name" style="ellipse;whiteSpace=wrap;html=1;labelBackgroundColor=#808080;" vertex="1" parent="1">
                    <mxGeometry x="520" y="280" width="120" height="80" as="geometry"/>
                </mxCell>
                <mxCell id="27" value="" style="endArrow=none;html=1;entryX=0;entryY=0.5;entryDx=0;entryDy=0;exitX=1;exitY=1;exitDx=0;exitDy=0;" edge="1" parent="1" source="26" target="22">
                    <mxGeometry width="50" height="50" relative="1" as="geometry">
                        <mxPoint x="600" y="370" as="sourcePoint"/>
                        <mxPoint x="650" y="320" as="targetPoint"/>
                    </mxGeometry>
                </mxCell>
                <mxCell id="28" value="start_date" style="ellipse;whiteSpace=wrap;html=1;labelBackgroundColor=#808080;" vertex="1" parent="1">
                    <mxGeometry x="620" y="90" width="120" height="80" as="geometry"/>
                </mxCell>
                <mxCell id="29" value="" style="endArrow=none;html=1;" edge="1" parent="1" source="28" target="22">
                    <mxGeometry width="50" height="50" relative="1" as="geometry">
                        <mxPoint x="570" y="370" as="sourcePoint"/>
                        <mxPoint x="620" y="320" as="targetPoint"/>
                    </mxGeometry>
                </mxCell>
                <mxCell id="30" value="language" style="ellipse;whiteSpace=wrap;html=1;labelBackgroundColor=#808080;" vertex="1" parent="1">
                    <mxGeometry x="680" y="470" width="120" height="80" as="geometry"/>
                </mxCell>
                <mxCell id="31" value="" style="endArrow=none;html=1;" edge="1" parent="1" source="30" target="22">
                    <mxGeometry width="50" height="50" relative="1" as="geometry">
                        <mxPoint x="570" y="370" as="sourcePoint"/>
                        <mxPoint x="620" y="320" as="targetPoint"/>
                    </mxGeometry>
                </mxCell>
                <mxCell id="32" value="course_id" style="ellipse;whiteSpace=wrap;html=1;labelBackgroundColor=#FF0000;" vertex="1" parent="1">
                    <mxGeometry x="550" y="540" width="120" height="80" as="geometry"/>
                </mxCell>
                <mxCell id="33" value="" style="endArrow=none;html=1;exitX=0.5;exitY=0;exitDx=0;exitDy=0;" edge="1" parent="1" source="32" target="22">
                    <mxGeometry width="50" height="50" relative="1" as="geometry">
                        <mxPoint x="550" y="370" as="sourcePoint"/>
                        <mxPoint x="600" y="320" as="targetPoint"/>
                    </mxGeometry>
                </mxCell>
                <mxCell id="34" value="&lt;span style=&quot;background-color: rgb(128 , 128 , 128)&quot;&gt;in_school&lt;/span&gt;" style="ellipse;whiteSpace=wrap;html=1;labelBackgroundColor=#FF0000;" vertex="1" parent="1">
                    <mxGeometry x="690" width="120" height="80" as="geometry"/>
                </mxCell>
                <mxCell id="35" value="" style="endArrow=none;html=1;" edge="1" parent="1" source="34" target="22">
                    <mxGeometry width="50" height="50" relative="1" as="geometry">
                        <mxPoint x="550" y="370" as="sourcePoint"/>
                        <mxPoint x="600" y="320" as="targetPoint"/>
                    </mxGeometry>
                </mxCell>
                <mxCell id="36" value="teacher" style="ellipse;whiteSpace=wrap;html=1;labelBackgroundColor=#00CC00;" vertex="1" parent="1">
                    <mxGeometry x="430" y="370" width="120" height="80" as="geometry"/>
                </mxCell>
                <mxCell id="37" value="" style="endArrow=none;html=1;" edge="1" parent="1" source="36" target="22">
                    <mxGeometry width="50" height="50" relative="1" as="geometry">
                        <mxPoint x="550" y="370" as="sourcePoint"/>
                        <mxPoint x="600" y="320" as="targetPoint"/>
                    </mxGeometry>
                </mxCell>
                <mxCell id="sqA6YAqeqVipJk_75vfI-37" value="offers" style="rhombus;whiteSpace=wrap;html=1;labelBackgroundColor=#0000CC;" vertex="1" parent="1">
                    <mxGeometry x="450" y="-230" width="80" height="80" as="geometry"/>
                </mxCell>
                <mxCell id="sqA6YAqeqVipJk_75vfI-38" value="Client" style="whiteSpace=wrap;html=1;aspect=fixed;labelBackgroundColor=#CCCCCC;" vertex="1" parent="1">
                    <mxGeometry x="590" y="-520" width="80" height="80" as="geometry"/>
                </mxCell>
                <mxCell id="sqA6YAqeqVipJk_75vfI-39" value="industry" style="ellipse;whiteSpace=wrap;html=1;labelBackgroundColor=#CCCCCC;" vertex="1" parent="1">
                    <mxGeometry x="700" y="-390" width="120" height="80" as="geometry"/>
                </mxCell>
                <mxCell id="sqA6YAqeqVipJk_75vfI-40" value="client_name" style="ellipse;whiteSpace=wrap;html=1;labelBackgroundColor=#CCCCCC;" vertex="1" parent="1">
                    <mxGeometry x="570" y="-730" width="120" height="80" as="geometry"/>
                </mxCell>
                <mxCell id="sqA6YAqeqVipJk_75vfI-41" value="address" style="ellipse;whiteSpace=wrap;html=1;labelBackgroundColor=#CCCCCC;" vertex="1" parent="1">
                    <mxGeometry x="730" y="-630" width="120" height="80" as="geometry"/>
                </mxCell>
                <mxCell id="sqA6YAqeqVipJk_75vfI-42" value="" style="endArrow=none;html=1;" edge="1" source="sqA6YAqeqVipJk_75vfI-41" target="sqA6YAqeqVipJk_75vfI-38" parent="1">
                    <mxGeometry width="50" height="50" relative="1" as="geometry">
                        <mxPoint x="760" y="-300" as="sourcePoint"/>
                        <mxPoint x="810" y="-350" as="targetPoint"/>
                    </mxGeometry>
                </mxCell>
                <mxCell id="sqA6YAqeqVipJk_75vfI-43" value="" style="endArrow=none;html=1;entryX=0.75;entryY=1;entryDx=0;entryDy=0;" edge="1" source="sqA6YAqeqVipJk_75vfI-39" target="sqA6YAqeqVipJk_75vfI-38" parent="1">
                    <mxGeometry width="50" height="50" relative="1" as="geometry">
                        <mxPoint x="760" y="-300" as="sourcePoint"/>
                        <mxPoint x="810" y="-350" as="targetPoint"/>
                    </mxGeometry>
                </mxCell>
                <mxCell id="sqA6YAqeqVipJk_75vfI-44" value="" style="endArrow=none;html=1;" edge="1" source="sqA6YAqeqVipJk_75vfI-38" target="sqA6YAqeqVipJk_75vfI-40" parent="1">
                    <mxGeometry width="50" height="50" relative="1" as="geometry">
                        <mxPoint x="760" y="-300" as="sourcePoint"/>
                        <mxPoint x="810" y="-350" as="targetPoint"/>
                    </mxGeometry>
                </mxCell>
                <mxCell id="sqA6YAqeqVipJk_75vfI-45" value="&lt;span style=&quot;background-color: rgb(255 , 0 , 0)&quot;&gt;client_id&lt;/span&gt;" style="ellipse;whiteSpace=wrap;html=1;labelBackgroundColor=#CCCCCC;" vertex="1" parent="1">
                    <mxGeometry x="720" y="-520" width="120" height="80" as="geometry"/>
                </mxCell>
                <mxCell id="sqA6YAqeqVipJk_75vfI-46" value="" style="endArrow=none;html=1;" edge="1" source="sqA6YAqeqVipJk_75vfI-45" target="sqA6YAqeqVipJk_75vfI-38" parent="1">
                    <mxGeometry width="50" height="50" relative="1" as="geometry">
                        <mxPoint x="760" y="-300" as="sourcePoint"/>
                        <mxPoint x="810" y="-350" as="targetPoint"/>
                    </mxGeometry>
                </mxCell>
                <mxCell id="sqA6YAqeqVipJk_75vfI-47" value="" style="endArrow=none;html=1;exitX=0;exitY=0;exitDx=0;exitDy=0;" edge="1" source="sqA6YAqeqVipJk_75vfI-37" target="sqA6YAqeqVipJk_75vfI-38" parent="1">
                    <mxGeometry width="50" height="50" relative="1" as="geometry">
                        <mxPoint x="760" y="-300" as="sourcePoint"/>
                        <mxPoint x="810" y="-350" as="targetPoint"/>
                    </mxGeometry>
                </mxCell>
                <mxCell id="sqA6YAqeqVipJk_75vfI-48" value="" style="endArrow=none;html=1;entryX=0;entryY=1;entryDx=0;entryDy=0;" edge="1" parent="1" source="3" target="sqA6YAqeqVipJk_75vfI-37">
                    <mxGeometry width="50" height="50" relative="1" as="geometry">
                        <mxPoint x="380" y="20" as="sourcePoint"/>
                        <mxPoint x="430" y="-30" as="targetPoint"/>
                    </mxGeometry>
                </mxCell>
                <mxCell id="sqA6YAqeqVipJk_75vfI-49" style="edgeStyle=none;html=1;exitX=1;exitY=0;exitDx=0;exitDy=0;entryX=1.08;entryY=0.363;entryDx=0;entryDy=0;entryPerimeter=0;" edge="1" parent="1" source="12" target="12">
                    <mxGeometry relative="1" as="geometry"/>
                </mxCell>
                <mxCell id="sqA6YAqeqVipJk_75vfI-50" value="&lt;span style=&quot;background-color: rgb(204 , 204 , 204)&quot;&gt;participant&lt;/span&gt;" style="whiteSpace=wrap;html=1;aspect=fixed;labelBackgroundColor=#0000CC;" vertex="1" parent="1">
                    <mxGeometry x="100" y="-600" width="80" height="80" as="geometry"/>
                </mxCell>
                <mxCell id="sqA6YAqeqVipJk_75vfI-51" value="participant_id" style="ellipse;whiteSpace=wrap;html=1;labelBackgroundColor=#000000;fillColor=#d80073;fontColor=#ffffff;strokeColor=#A50040;" vertex="1" parent="1">
                    <mxGeometry x="-30" y="-770" width="120" height="80" as="geometry"/>
                </mxCell>
                <mxCell id="sqA6YAqeqVipJk_75vfI-52" value="" style="endArrow=none;html=1;entryX=0.5;entryY=1;entryDx=0;entryDy=0;" edge="1" parent="1" source="sqA6YAqeqVipJk_75vfI-50" target="sqA6YAqeqVipJk_75vfI-51">
                    <mxGeometry width="50" height="50" relative="1" as="geometry">
                        <mxPoint x="380" y="-380" as="sourcePoint"/>
                        <mxPoint x="430" y="-430" as="targetPoint"/>
                    </mxGeometry>
                </mxCell>
                <mxCell id="sqA6YAqeqVipJk_75vfI-53" value="first_name" style="ellipse;whiteSpace=wrap;html=1;labelBackgroundColor=#000000;fillColor=#1ba1e2;fontColor=#ffffff;strokeColor=#006EAF;" vertex="1" parent="1">
                    <mxGeometry x="-180" y="-630" width="120" height="80" as="geometry"/>
                </mxCell>
                <mxCell id="sqA6YAqeqVipJk_75vfI-54" value="" style="endArrow=none;html=1;" edge="1" parent="1" source="sqA6YAqeqVipJk_75vfI-53" target="sqA6YAqeqVipJk_75vfI-50">
                    <mxGeometry width="50" height="50" relative="1" as="geometry">
                        <mxPoint x="150" y="-380" as="sourcePoint"/>
                        <mxPoint x="200" y="-430" as="targetPoint"/>
                    </mxGeometry>
                </mxCell>
                <mxCell id="sqA6YAqeqVipJk_75vfI-55" value="phone_no" style="ellipse;whiteSpace=wrap;html=1;labelBackgroundColor=#000000;fillColor=#1ba1e2;fontColor=#ffffff;strokeColor=#006EAF;" vertex="1" parent="1">
                    <mxGeometry x="140" y="-740" width="120" height="80" as="geometry"/>
                </mxCell>
                <mxCell id="sqA6YAqeqVipJk_75vfI-56" value="" style="endArrow=none;html=1;exitX=0.75;exitY=0;exitDx=0;exitDy=0;" edge="1" parent="1" source="sqA6YAqeqVipJk_75vfI-50" target="sqA6YAqeqVipJk_75vfI-55">
                    <mxGeometry width="50" height="50" relative="1" as="geometry">
                        <mxPoint x="70" y="-620" as="sourcePoint"/>
                        <mxPoint x="120" y="-670" as="targetPoint"/>
                    </mxGeometry>
                </mxCell>
                <mxCell id="sqA6YAqeqVipJk_75vfI-57" value="last_name" style="ellipse;whiteSpace=wrap;html=1;labelBackgroundColor=#000000;fillColor=#1ba1e2;fontColor=#ffffff;strokeColor=#006EAF;" vertex="1" parent="1">
                    <mxGeometry x="-80" y="-510" width="120" height="80" as="geometry"/>
                </mxCell>
                <mxCell id="sqA6YAqeqVipJk_75vfI-58" value="" style="endArrow=none;html=1;entryX=0.25;entryY=1;entryDx=0;entryDy=0;" edge="1" parent="1" source="sqA6YAqeqVipJk_75vfI-57" target="sqA6YAqeqVipJk_75vfI-50">
                    <mxGeometry width="50" height="50" relative="1" as="geometry">
                        <mxPoint x="70" y="-620" as="sourcePoint"/>
                        <mxPoint x="120" y="-670" as="targetPoint"/>
                    </mxGeometry>
                </mxCell>
                <mxCell id="sqA6YAqeqVipJk_75vfI-59" value="takes" style="rhombus;whiteSpace=wrap;html=1;labelBackgroundColor=#000000;" vertex="1" parent="1">
                    <mxGeometry x="250" y="-400" width="80" height="80" as="geometry"/>
                </mxCell>
                <mxCell id="sqA6YAqeqVipJk_75vfI-60" value="" style="endArrow=none;html=1;entryX=0.75;entryY=1;entryDx=0;entryDy=0;" edge="1" parent="1" source="sqA6YAqeqVipJk_75vfI-59" target="sqA6YAqeqVipJk_75vfI-50">
                    <mxGeometry width="50" height="50" relative="1" as="geometry">
                        <mxPoint x="420" y="-500" as="sourcePoint"/>
                        <mxPoint x="470" y="-550" as="targetPoint"/>
                    </mxGeometry>
                </mxCell>
                <mxCell id="sqA6YAqeqVipJk_75vfI-61" value="" style="endArrow=none;html=1;entryX=1;entryY=1;entryDx=0;entryDy=0;" edge="1" parent="1" source="22" target="sqA6YAqeqVipJk_75vfI-59">
                    <mxGeometry width="50" height="50" relative="1" as="geometry">
                        <mxPoint x="420" y="-170" as="sourcePoint"/>
                        <mxPoint x="470" y="-220" as="targetPoint"/>
                    </mxGeometry>
                </mxCell>
            </root>
        </mxGraphModel>
    </diagram>
    <diagram id="369WZ_tDR0AMkWWGuw4t" name="Page-2">
        <mxGraphModel dx="815" dy="2038" grid="1" gridSize="10" guides="1" tooltips="1" connect="1" arrows="1" fold="1" page="1" pageScale="1" pageWidth="827" pageHeight="1169" math="0" shadow="0">
            <root>
                <mxCell id="quxNl1IY-wqBMr5xX97r-0"/>
                <mxCell id="quxNl1IY-wqBMr5xX97r-1" parent="quxNl1IY-wqBMr5xX97r-0"/>
                <mxCell id="quxNl1IY-wqBMr5xX97r-2" value="course" style="whiteSpace=wrap;html=1;aspect=fixed;labelBackgroundColor=#808080;" vertex="1" parent="quxNl1IY-wqBMr5xX97r-1">
                    <mxGeometry x="524" y="230.04000000000002" width="80" height="80" as="geometry"/>
                </mxCell>
                <mxCell id="quxNl1IY-wqBMr5xX97r-3" value="" style="endArrow=none;html=1;exitX=0.25;exitY=1;exitDx=0;exitDy=0;entryX=1;entryY=0;entryDx=0;entryDy=0;" edge="1" source="quxNl1IY-wqBMr5xX97r-2" parent="quxNl1IY-wqBMr5xX97r-1" target="quxNl1IY-wqBMr5xX97r-17">
                    <mxGeometry width="50" height="50" relative="1" as="geometry">
                        <mxPoint x="430" y="310.04" as="sourcePoint"/>
                        <mxPoint x="315.68000000000006" y="469.92000000000013" as="targetPoint"/>
                    </mxGeometry>
                </mxCell>
                <mxCell id="quxNl1IY-wqBMr5xX97r-4" value="course_length_weeks" style="ellipse;whiteSpace=wrap;html=1;labelBackgroundColor=#808080;" vertex="1" parent="quxNl1IY-wqBMr5xX97r-1">
                    <mxGeometry x="390" y="120.04" width="120" height="80" as="geometry"/>
                </mxCell>
                <mxCell id="quxNl1IY-wqBMr5xX97r-5" value="" style="endArrow=none;html=1;" edge="1" source="quxNl1IY-wqBMr5xX97r-2" target="quxNl1IY-wqBMr5xX97r-4" parent="quxNl1IY-wqBMr5xX97r-1">
                    <mxGeometry width="50" height="50" relative="1" as="geometry">
                        <mxPoint x="430" y="310.04" as="sourcePoint"/>
                        <mxPoint x="480" y="260.04" as="targetPoint"/>
                    </mxGeometry>
                </mxCell>
                <mxCell id="quxNl1IY-wqBMr5xX97r-6" value="course_name" style="ellipse;whiteSpace=wrap;html=1;labelBackgroundColor=#808080;" vertex="1" parent="quxNl1IY-wqBMr5xX97r-1">
                    <mxGeometry x="350" y="220.04000000000002" width="120" height="80" as="geometry"/>
                </mxCell>
                <mxCell id="quxNl1IY-wqBMr5xX97r-7" value="" style="endArrow=none;html=1;entryX=0;entryY=0.5;entryDx=0;entryDy=0;exitX=1;exitY=1;exitDx=0;exitDy=0;" edge="1" source="quxNl1IY-wqBMr5xX97r-6" target="quxNl1IY-wqBMr5xX97r-2" parent="quxNl1IY-wqBMr5xX97r-1">
                    <mxGeometry width="50" height="50" relative="1" as="geometry">
                        <mxPoint x="430" y="310.04" as="sourcePoint"/>
                        <mxPoint x="480" y="260.04" as="targetPoint"/>
                    </mxGeometry>
                </mxCell>
                <mxCell id="quxNl1IY-wqBMr5xX97r-8" value="start_date" style="ellipse;whiteSpace=wrap;html=1;labelBackgroundColor=#808080;" vertex="1" parent="quxNl1IY-wqBMr5xX97r-1">
                    <mxGeometry x="450" y="30.040000000000006" width="120" height="80" as="geometry"/>
                </mxCell>
                <mxCell id="quxNl1IY-wqBMr5xX97r-9" value="" style="endArrow=none;html=1;" edge="1" source="quxNl1IY-wqBMr5xX97r-8" target="quxNl1IY-wqBMr5xX97r-2" parent="quxNl1IY-wqBMr5xX97r-1">
                    <mxGeometry width="50" height="50" relative="1" as="geometry">
                        <mxPoint x="400" y="310.04" as="sourcePoint"/>
                        <mxPoint x="450" y="260.04" as="targetPoint"/>
                    </mxGeometry>
                </mxCell>
                <mxCell id="quxNl1IY-wqBMr5xX97r-10" value="language" style="ellipse;whiteSpace=wrap;html=1;labelBackgroundColor=#808080;" vertex="1" parent="quxNl1IY-wqBMr5xX97r-1">
                    <mxGeometry x="510" y="410.04" width="120" height="80" as="geometry"/>
                </mxCell>
                <mxCell id="quxNl1IY-wqBMr5xX97r-11" value="" style="endArrow=none;html=1;" edge="1" source="quxNl1IY-wqBMr5xX97r-10" target="quxNl1IY-wqBMr5xX97r-2" parent="quxNl1IY-wqBMr5xX97r-1">
                    <mxGeometry width="50" height="50" relative="1" as="geometry">
                        <mxPoint x="400" y="310.04" as="sourcePoint"/>
                        <mxPoint x="450" y="260.04" as="targetPoint"/>
                    </mxGeometry>
                </mxCell>
                <mxCell id="quxNl1IY-wqBMr5xX97r-12" value="course_id" style="ellipse;whiteSpace=wrap;html=1;labelBackgroundColor=#FF0000;" vertex="1" parent="quxNl1IY-wqBMr5xX97r-1">
                    <mxGeometry x="380" y="480.04" width="120" height="80" as="geometry"/>
                </mxCell>
                <mxCell id="quxNl1IY-wqBMr5xX97r-13" value="" style="endArrow=none;html=1;exitX=0.5;exitY=0;exitDx=0;exitDy=0;" edge="1" source="quxNl1IY-wqBMr5xX97r-12" target="quxNl1IY-wqBMr5xX97r-2" parent="quxNl1IY-wqBMr5xX97r-1">
                    <mxGeometry width="50" height="50" relative="1" as="geometry">
                        <mxPoint x="380" y="310.04" as="sourcePoint"/>
                        <mxPoint x="430" y="260.04" as="targetPoint"/>
                    </mxGeometry>
                </mxCell>
                <mxCell id="quxNl1IY-wqBMr5xX97r-15" value="teacher" style="ellipse;whiteSpace=wrap;html=1;labelBackgroundColor=#00CC00;" vertex="1" parent="quxNl1IY-wqBMr5xX97r-1">
                    <mxGeometry x="260" y="310.04" width="120" height="80" as="geometry"/>
                </mxCell>
                <mxCell id="quxNl1IY-wqBMr5xX97r-16" value="" style="endArrow=none;html=1;" edge="1" source="quxNl1IY-wqBMr5xX97r-15" target="quxNl1IY-wqBMr5xX97r-2" parent="quxNl1IY-wqBMr5xX97r-1">
                    <mxGeometry width="50" height="50" relative="1" as="geometry">
                        <mxPoint x="380" y="310.04" as="sourcePoint"/>
                        <mxPoint x="430" y="260.04" as="targetPoint"/>
                    </mxGeometry>
                </mxCell>
                <mxCell id="quxNl1IY-wqBMr5xX97r-17" value="offers" style="rhombus;whiteSpace=wrap;html=1;labelBackgroundColor=#00CC00;" vertex="1" parent="quxNl1IY-wqBMr5xX97r-1">
                    <mxGeometry x="140" y="460" width="80" height="80" as="geometry"/>
                </mxCell>
                <mxCell id="quxNl1IY-wqBMr5xX97r-18" value="Client" style="whiteSpace=wrap;html=1;aspect=fixed;labelBackgroundColor=#CCCCCC;" vertex="1" parent="quxNl1IY-wqBMr5xX97r-1">
                    <mxGeometry x="40" y="50" width="80" height="80" as="geometry"/>
                </mxCell>
                <mxCell id="quxNl1IY-wqBMr5xX97r-19" value="industry" style="ellipse;whiteSpace=wrap;html=1;labelBackgroundColor=#CCCCCC;" vertex="1" parent="quxNl1IY-wqBMr5xX97r-1">
                    <mxGeometry x="150" y="180" width="120" height="80" as="geometry"/>
                </mxCell>
                <mxCell id="quxNl1IY-wqBMr5xX97r-20" value="client_name" style="ellipse;whiteSpace=wrap;html=1;labelBackgroundColor=#CCCCCC;" vertex="1" parent="quxNl1IY-wqBMr5xX97r-1">
                    <mxGeometry x="20" y="-160" width="120" height="80" as="geometry"/>
                </mxCell>
                <mxCell id="quxNl1IY-wqBMr5xX97r-21" value="address" style="ellipse;whiteSpace=wrap;html=1;labelBackgroundColor=#CCCCCC;" vertex="1" parent="quxNl1IY-wqBMr5xX97r-1">
                    <mxGeometry x="180" y="-60" width="120" height="80" as="geometry"/>
                </mxCell>
                <mxCell id="quxNl1IY-wqBMr5xX97r-22" value="" style="endArrow=none;html=1;" edge="1" parent="quxNl1IY-wqBMr5xX97r-1" source="quxNl1IY-wqBMr5xX97r-21" target="quxNl1IY-wqBMr5xX97r-18">
                    <mxGeometry width="50" height="50" relative="1" as="geometry">
                        <mxPoint x="210" y="270" as="sourcePoint"/>
                        <mxPoint x="260" y="220" as="targetPoint"/>
                    </mxGeometry>
                </mxCell>
                <mxCell id="quxNl1IY-wqBMr5xX97r-23" value="" style="endArrow=none;html=1;entryX=0.75;entryY=1;entryDx=0;entryDy=0;" edge="1" parent="quxNl1IY-wqBMr5xX97r-1" source="quxNl1IY-wqBMr5xX97r-19" target="quxNl1IY-wqBMr5xX97r-18">
                    <mxGeometry width="50" height="50" relative="1" as="geometry">
                        <mxPoint x="210" y="270" as="sourcePoint"/>
                        <mxPoint x="260" y="220" as="targetPoint"/>
                    </mxGeometry>
                </mxCell>
                <mxCell id="quxNl1IY-wqBMr5xX97r-24" value="" style="endArrow=none;html=1;" edge="1" parent="quxNl1IY-wqBMr5xX97r-1" source="quxNl1IY-wqBMr5xX97r-18" target="quxNl1IY-wqBMr5xX97r-20">
                    <mxGeometry width="50" height="50" relative="1" as="geometry">
                        <mxPoint x="210" y="270" as="sourcePoint"/>
                        <mxPoint x="260" y="220" as="targetPoint"/>
                    </mxGeometry>
                </mxCell>
                <mxCell id="quxNl1IY-wqBMr5xX97r-25" value="&lt;span style=&quot;background-color: rgb(255 , 0 , 0)&quot;&gt;client_id&lt;/span&gt;" style="ellipse;whiteSpace=wrap;html=1;labelBackgroundColor=#CCCCCC;" vertex="1" parent="quxNl1IY-wqBMr5xX97r-1">
                    <mxGeometry x="170" y="50" width="120" height="80" as="geometry"/>
                </mxCell>
                <mxCell id="quxNl1IY-wqBMr5xX97r-26" value="" style="endArrow=none;html=1;" edge="1" parent="quxNl1IY-wqBMr5xX97r-1" source="quxNl1IY-wqBMr5xX97r-25" target="quxNl1IY-wqBMr5xX97r-18">
                    <mxGeometry width="50" height="50" relative="1" as="geometry">
                        <mxPoint x="210" y="270" as="sourcePoint"/>
                        <mxPoint x="260" y="220" as="targetPoint"/>
                    </mxGeometry>
                </mxCell>
                <mxCell id="quxNl1IY-wqBMr5xX97r-27" value="" style="endArrow=none;html=1;exitX=0;exitY=0;exitDx=0;exitDy=0;" edge="1" parent="quxNl1IY-wqBMr5xX97r-1" source="quxNl1IY-wqBMr5xX97r-17" target="quxNl1IY-wqBMr5xX97r-18">
                    <mxGeometry width="50" height="50" relative="1" as="geometry">
                        <mxPoint x="210" y="270" as="sourcePoint"/>
                        <mxPoint x="260" y="220" as="targetPoint"/>
                    </mxGeometry>
                </mxCell>
            </root>
        </mxGraphModel>
    </diagram>
</mxfile>